# xmcd
#
# Track frame offsets:
#	150
#	14567
#	25529
#	34929
#	46192
#	59466
#	70746
#	87286
#	102295
#	115226
#	126552
#	136723
#	148742
#	162541
#	175624
#	184061
#	197487
#	209046
#	225074
#	237910
#
# Disc length: 3309 seconds
#
# Revision: 0
# Processed by: cddbd v1.5.2PL0 Copyright (c) Steve Scherf et al.
# Submitted via: EasyCDDAExtractor 15.3.0.1
#
DISCID=130ceb14
DTITLE=Slin Whitman - Greatest Hits
DYEAR=2013
DGENRE=Country
TTITLE0=Indian Love Call
TTITLE1=Rose Marie
TTITLE2=My Little Lady
TTITLE3=Singing Hills
TTITLE4=Love Song Of The Waterfall
TTITLE5=The Wayward Wind
TTITLE6=Three Bells
TTITLE7=Mocking Bird Hill
TTITLE8=Tennessee Waltz
TTITLE9=Singing The Blues
TTITLE10=Cara Mia
TTITLE11=Now Is The Hour
TTITLE12=You Are My Sunshine
TTITLE13=Please Release Me
TTITLE14=Have You Ever Been Lonely
TTITLE15=Till I Waltz Again With You
TTITLE16=It Is No Secret
TTITLE17=Down In The Valley
TTITLE18=Half As Much
TTITLE19=Anytime You're Feeling Lonely
EXTD=
EXTT0=
EXTT1=
EXTT2=
EXTT3=
EXTT4=
EXTT5=
EXTT6=
EXTT7=
EXTT8=
EXTT9=
EXTT10=
EXTT11=
EXTT12=
EXTT13=
EXTT14=
EXTT15=
EXTT16=
EXTT17=
EXTT18=
EXTT19=
PLAYORDER=
